# xmcd
#
# Track frame offsets: 
#        150
#        15286
#        28826
#        42359
#        56353
#        69809
#        84273
#        97588
#        111769
#        125839
#        140932
#        155024
#        168018
#        181641
#        195458
#        209650
#        223138
#        235838
#
# Disc length: 3308 seconds
#
# Revision: 0
# Processed by: cddbd v1.5.2PL0 Copyright (c) Steve Scherf et al.
# Submitted via: ExactAudioCopy v0.95b2
#
DISCID=ed0cea12
DTITLE=Mamie Smith - The Essential Mamie Smith Disc 1
DYEAR=1900
DGENRE=Blues
TTITLE0=Crazy Blues
TTITLE1=Don't Care Blues
TTITLE2=Frankie Blues
TTITLE3=I Ain't Gonna Give Nobody None O' This Jelly Roll
TTITLE4=Jazzbo Ball
TTITLE5=Don't Mess with Me
TTITLE6="U" Need Some Lovin' Blues
TTITLE7=Do It Mr. So-And-So
TTITLE8=Wabash Blues
TTITLE9=Kansas City Man Blues
TTITLE10=Get Hot
TTITLE11=Got to Cool My Doggies Now
TTITLE12=You Can Have Him, I Don't Want Him, Didn't Love Him Anyhow Bl
TTITLE12=ues
TTITLE13=Down Home Blues
TTITLE14=Arkansas Blues (A Down Home Chang)
TTITLE15=My Sportin' Man
TTITLE16=The Lure of the South
TTITLE17=Golfing Papa
EXTD=
EXTT0=
EXTT1=
EXTT2=
EXTT3=
EXTT4=
EXTT5=
EXTT6=
EXTT7=
EXTT8=
EXTT9=
EXTT10=
EXTT11=
EXTT12=
EXTT13=
EXTT14=
EXTT15=
EXTT16=
EXTT17=
PLAYORDER=
